# This file uses centimeters as units for non-parametric coordinates.

mtllib blockOfIce.mtl
g default
v -0.618722 0.317599 0.638766
v -0.166667 0.317599 0.500000
v 0.166667 0.317599 0.714774
v 0.468436 0.317599 0.449823
v -0.500000 1.317599 0.500000
v -0.166667 1.317599 0.500000
v 0.166667 1.317599 0.500000
v 0.500000 1.317599 0.500000
v -0.316684 2.317599 0.261221
v -0.099191 2.317599 0.400681
v 0.118302 2.317599 0.261221
v 0.335795 2.317599 0.261221
v -0.333076 3.046154 0.275292
v -0.149548 3.046154 0.275292
v 0.033980 3.046154 0.275292
v 0.217508 3.046154 0.275292
v -0.333076 3.046154 0.091764
v -0.149548 3.046154 0.091764
v 0.033980 3.350650 0.091764
v 0.217508 3.046154 0.091764
v -0.474660 3.046154 -0.091764
v -0.149548 3.424597 -0.091764
v 0.033980 3.046154 -0.091764
v 0.217508 3.046154 -0.091764
v -0.236207 3.046154 -0.197385
v -0.149548 3.046154 -0.275292
v 0.033980 3.046154 -0.275292
v 0.217508 3.046154 -0.275292
v -0.316684 2.317599 -0.391258
v -0.099191 2.317599 -0.391258
v 0.118302 2.317599 -0.391258
v 0.371677 2.317599 -0.635404
v -0.500000 1.317599 -0.500000
v -0.166667 1.317599 -0.500000
v 0.166667 1.317599 -0.500000
v 0.500000 1.317599 -0.500000
v -0.592228 0.317599 -0.500000
v -0.166667 0.317599 -0.500000
v 0.166667 0.317599 -0.659862
v 0.613578 0.317599 -0.500000
v -0.727173 0.317599 -0.166667
v -0.166667 0.317599 -0.166667
v 0.166667 0.317599 -0.166667
v 0.531660 0.317599 -0.166667
v -0.500000 0.317599 0.166667
v -0.166667 0.317599 0.166667
v 0.166667 0.317599 0.166667
v 0.677977 0.317599 0.166667
v 0.500000 1.317599 -0.166667
v 0.500000 1.317599 0.166667
v 0.493550 2.317599 -0.173765
v 0.335795 2.317599 0.043728
v -0.500000 1.317599 -0.166667
v -0.500000 1.317599 0.166667
v -0.316684 2.317599 -0.173765
v -0.546910 2.317599 0.043728
vt 0.000000 0.000000
vt 0.333333 0.000000
vt 0.666667 0.000000
vt 1.000000 0.000000
vt 0.000000 0.333333
vt 0.333333 0.333333
vt 0.666667 0.333333
vt 1.000000 0.333333
vt 0.000000 0.666667
vt 0.333333 0.666667
vt 0.666667 0.666667
vt 1.000000 0.666667
vt 0.000000 1.000000
vt 0.333333 1.000000
vt 0.666667 1.000000
vt 1.000000 1.000000
vt 0.000000 1.333333
vt 0.333333 1.333333
vt 0.666667 1.333333
vt 1.000000 1.333333
vt 0.000000 1.666667
vt 0.333333 1.666667
vt 0.666667 1.666667
vt 1.000000 1.666667
vt 0.000000 2.000000
vt 0.333333 2.000000
vt 0.666667 2.000000
vt 1.000000 2.000000
vt 0.000000 2.333333
vt 0.333333 2.333333
vt 0.666667 2.333333
vt 1.000000 2.333333
vt 0.000000 2.666667
vt 0.333333 2.666667
vt 0.666667 2.666667
vt 1.000000 2.666667
vt 0.000000 3.000000
vt 0.333333 3.000000
vt 0.666667 3.000000
vt 1.000000 3.000000
vt 0.000000 3.333333
vt 0.333333 3.333333
vt 0.666667 3.333333
vt 1.000000 3.333333
vt 0.000000 3.666666
vt 0.333333 3.666666
vt 0.666667 3.666666
vt 1.000000 3.666666
vt 0.000000 4.000000
vt 0.333333 4.000000
vt 0.666667 4.000000
vt 1.000000 4.000000
vt 2.000000 0.000000
vt 1.666667 0.000000
vt 1.333333 0.000000
vt 2.000000 0.333333
vt 1.666667 0.333333
vt 1.333333 0.333333
vt 2.000000 0.666667
vt 1.666667 0.666667
vt 1.333333 0.666667
vt 2.000000 1.000000
vt 1.666667 1.000000
vt 1.333333 1.000000
vt -1.000000 0.000000
vt -0.666667 0.000000
vt -0.333333 0.000000
vt -1.000000 0.333333
vt -0.666667 0.333333
vt -0.333333 0.333333
vt -1.000000 0.666667
vt -0.666667 0.666667
vt -0.333333 0.666667
vt -1.000000 1.000000
vt -0.666667 1.000000
vt -0.333333 1.000000
vn 0.173697 0.057899 0.983096
vn -0.052103 0.080783 0.995369
vn -0.034137 0.124660 0.991612
vn 0.018872 0.110254 0.993724
vn 0.035177 0.091627 0.995172
vn 0.076165 0.141345 0.987026
vn 0.384081 0.069708 0.920664
vn 0.223965 0.142664 0.964099
vn 0.010225 0.149591 0.988695
vn -0.271847 0.145059 0.951345
vn 0.135355 0.142133 0.980550
vn 0.000000 0.158818 0.987308
vn -0.015004 0.083163 0.996423
vn -0.327933 0.057018 0.942979
vn 0.183251 0.048408 0.981874
vn 0.000000 -0.019310 0.999814
vn 0.000000 1.000000 0.000000
vn -0.357771 0.862554 0.357771
vn -0.352229 0.760454 0.545568
vn -0.348148 0.706002 0.616728
vn 0.000000 0.769647 0.638469
vn 0.242168 0.939526 0.242168
vn 0.538138 0.648702 0.538138
vn 0.638469 0.769647 -0.000000
vn -0.288198 0.943496 -0.163575
vn -0.677698 0.723535 0.131233
vn 0.449884 0.793941 -0.408976
vn 0.357771 0.862554 -0.357771
vn 0.065018 0.537155 -0.840974
vn -0.463174 0.335056 -0.820492
vn 0.416561 0.808056 -0.416561
vn 0.000000 1.000000 0.000000
vn -0.242783 0.206564 -0.947833
vn -0.116469 0.182127 -0.976353
vn -0.033239 0.131320 -0.990783
vn -0.063763 0.134709 -0.988832
vn -0.257093 0.185955 -0.948327
vn -0.236986 0.089730 -0.967360
vn -0.477840 0.201174 -0.855101
vn -0.414704 0.026853 -0.909560
vn -0.062983 0.068192 -0.995682
vn 0.000000 0.041040 -0.999158
vn -0.096692 0.058607 -0.993587
vn -0.038551 0.035973 -0.998609
vn -0.111364 0.037121 -0.993086
vn 0.000000 0.000000 -1.000000
vn 0.001102 0.085915 -0.996302
vn 0.199915 0.089344 -0.975731
vn 0.000000 -1.000000 -0.000000
vn 0.000000 -1.000000 -0.000000
vn 0.000000 -1.000000 0.000000
vn 0.000000 -1.000000 -0.000000
vn 0.000000 -1.000000 0.000000
vn 0.000000 -1.000000 0.000000
vn 0.000000 -1.000000 0.000000
vn 0.000000 -1.000000 0.000000
vn 0.000000 -1.000000 0.000000
vn 0.000000 -1.000000 0.000000
vn 0.000000 -1.000000 0.000000
vn 0.000000 -1.000000 0.000000
vn 0.000000 -1.000000 0.000000
vn 0.000000 -1.000000 0.000000
vn 0.000000 -1.000000 0.000000
vn 0.000000 -1.000000 0.000000
vn 0.994921 0.088294 -0.048333
vn 0.989967 0.071890 0.121644
vn 0.997452 0.063345 -0.032818
vn 0.996577 0.082052 -0.010142
vn 0.995294 0.085359 0.045863
vn 0.990363 0.107977 0.086733
vn 0.945033 0.061124 0.321211
vn 0.976853 0.105998 0.185804
vn 0.975302 0.151143 -0.161067
vn 0.987605 0.155849 0.018640
vn 0.974022 0.153492 0.166496
vn 0.986878 0.161469 0.000000
vn 0.928482 0.327351 -0.175391
vn 0.955555 0.290437 0.050613
vn 0.964697 0.190455 0.181897
vn 0.987075 0.160260 0.000000
vn -0.968332 0.154643 -0.196008
vn -0.988683 0.135422 0.064556
vn -0.990637 0.124255 -0.056559
vn -0.979655 0.166517 -0.112022
vn -0.994269 0.077874 0.073249
vn -0.994767 0.085614 0.055761
vn -0.988144 0.048551 -0.145654
vn -0.995402 0.081816 0.049818
vn -0.955958 0.097182 -0.276947
vn -0.971517 0.154536 -0.179646
vn -0.995503 0.087318 0.036726
vn -0.898114 0.119083 0.423332
vn -0.915379 0.063897 -0.397491
vn -0.802674 0.069459 -0.592360
vn -0.974181 0.084845 0.209219
vn -0.863250 0.095848 0.495593
s 1
g pCube1
usemtl initialShadingGroup
f 1/1/1 2/2/2 6/6/3 5/5/4
f 2/2/2 3/3/5 7/7/6 6/6/3
f 3/3/5 4/4/7 8/8/8 7/7/6
f 5/5/4 6/6/3 10/10/9 9/9/10
f 6/6/3 7/7/6 11/11/11 10/10/9
f 7/7/6 8/8/8 12/12/12 11/11/11
f 9/9/10 10/10/9 14/14/13 13/13/14
f 10/10/9 11/11/11 15/15/15 14/14/13
f 11/11/11 12/12/12 16/16/16 15/15/15
s 2
f 13/13/17 14/14/18 18/18/19 17/17/20
f 14/14/18 15/15/21 19/19/22 18/18/19
f 15/15/21 16/16/23 20/20/24 19/19/22
f 17/17/20 18/18/19 22/22/25 21/21/26
f 18/18/19 19/19/22 23/23/27 22/22/25
f 19/19/22 20/20/24 24/24/28 23/23/27
f 21/21/26 22/22/25 26/26/29 25/25/30
f 22/22/25 23/23/27 27/27/31 26/26/29
f 23/23/27 24/24/28 28/28/32 27/27/31
s 3
f 25/25/33 26/26/34 30/30/35 29/29/36
f 26/26/34 27/27/37 31/31/38 30/30/35
f 27/27/37 28/28/39 32/32/40 31/31/38
f 29/29/36 30/30/35 34/34/41 33/33/42
f 30/30/35 31/31/38 35/35/43 34/34/41
f 31/31/38 32/32/40 36/36/44 35/35/43
f 33/33/42 34/34/41 38/38/45 37/37/46
f 34/34/41 35/35/43 39/39/47 38/38/45
f 35/35/43 36/36/44 40/40/48 39/39/47
s 4
f 37/37/49 38/38/50 42/42/51 41/41/52
f 38/38/50 39/39/53 43/43/54 42/42/51
f 39/39/53 40/40/55 44/44/56 43/43/54
f 41/41/52 42/42/51 46/46/57 45/45/58
f 42/42/51 43/43/54 47/47/59 46/46/57
f 43/43/54 44/44/56 48/48/60 47/47/59
f 45/45/58 46/46/57 2/50/61 1/49/62
f 46/46/57 47/47/59 3/51/63 2/50/61
f 47/47/59 48/48/60 4/52/64 3/51/63
s 5
f 44/54/65 40/53/66 36/56/67 49/57/68
f 48/55/69 44/54/65 49/57/68 50/58/70
f 4/4/71 48/55/69 50/58/70 8/8/72
f 49/57/68 36/56/67 32/59/73 51/60/74
f 50/58/70 49/57/68 51/60/74 52/61/75
f 8/8/72 50/58/70 52/61/75 12/12/76
f 51/60/74 32/59/73 28/62/77 24/63/78
f 52/61/75 51/60/74 24/63/78 20/64/79
f 12/12/76 52/61/75 20/64/79 16/16/80
s 6
f 37/65/81 41/66/82 53/69/83 33/68/84
f 41/66/82 45/67/85 54/70/86 53/69/83
f 45/67/85 1/1/87 5/5/88 54/70/86
f 33/68/84 53/69/83 55/72/89 29/71/90
f 53/69/83 54/70/86 56/73/91 55/72/89
f 54/70/86 5/5/88 9/9/92 56/73/91
f 29/71/90 55/72/89 21/75/93 25/74/94
f 55/72/89 56/73/91 17/76/95 21/75/93
f 56/73/91 9/9/92 13/13/96 17/76/95
